<svg xmlns="http://www.w3.org/2000/svg" viewBox="0 0 121.27 98.44"><defs><style>.cls-1{fill:#fff;}</style></defs><g id="Layer_2" data-name="Layer 2"><g id="Layer_1-2" data-name="Layer 1"><path class="cls-1" d="M121.27,14.72a14.74,14.74,0,0,1-19.79,13.84.45.45,0,0,0-.14-.06c-.38-.16-.81-.34-1.26-.55l-.08,0c-5.37-2.26-15.92-6.23-23.93-6.23-7.69,0-17.69,3.64-23.24,5.93-1,.43-1.92.81-2.59,1.11l0,0a14.73,14.73,0,1,1,0-28h0c.67.31,1.55.69,2.59,1.11,5.55,2.3,15.55,5.93,23.24,5.93,8,0,18.56-4,23.93-6.23l.08,0c.45-.21.88-.39,1.26-.55l.14-.06a14.74,14.74,0,0,1,19.79,13.83Z"/><path class="cls-1" d="M121.27,83.72a14.74,14.74,0,0,1-19.79,13.83l-.14-.06L100.08,97l-.08,0c-5.37-2.27-15.92-6.23-23.93-6.23-7.69,0-17.69,3.63-23.24,5.93-1,.42-1.92.81-2.59,1.11h0a14.73,14.73,0,1,1,0-28l0,0c.67.3,1.55.68,2.59,1.11,5.55,2.29,15.55,5.93,23.24,5.93,8,0,18.56-4,23.93-6.23l.08,0c.45-.21.88-.38,1.26-.55a1.09,1.09,0,0,0,.14,0,14.72,14.72,0,0,1,19.79,13.83Z"/><path class="cls-1" d="M90.28,49.22A14.74,14.74,0,0,1,70.49,63.05a1.09,1.09,0,0,0-.14,0l-1.26-.55-.08,0c-5.37-2.26-15.92-6.23-23.93-6.23-7.69,0-17.69,3.64-23.23,5.93-1.05.42-1.93.81-2.6,1.11h0a14.45,14.45,0,0,1-4.49.7,14.72,14.72,0,0,1,0-29.44,14.45,14.45,0,0,1,4.49.7h0c.67.3,1.55.69,2.6,1.11,5.54,2.29,15.54,5.93,23.23,5.93,8,0,18.56-4,23.93-6.23l.08,0,1.26-.55a1.09,1.09,0,0,0,.14,0A14.74,14.74,0,0,1,90.28,49.22Z"/></g></g></svg>