<svg xmlns="http://www.w3.org/2000/svg" viewBox="0 0 144.08 170.24"><defs><style>.cls-1{fill:#fff;}</style></defs><g id="Layer_2" data-name="Layer 2"><g id="Layer_1-2" data-name="Layer 1"><path class="cls-1" d="M12.3,135.51a7.18,7.18,0,0,1,0-14.35,6.85,6.85,0,0,1,7.12,7.17c0,.39,0,.75-.05,1.11H9.6a2.59,2.59,0,0,0,2.81,2.42,2.15,2.15,0,0,0,2.21-1.18h4.5C18.24,133.85,15.83,135.51,12.3,135.51Zm-2.67-8.42H15a2.54,2.54,0,0,0-2.71-2.29A2.54,2.54,0,0,0,9.63,127.09Z"/><path class="cls-1" d="M26.18,135.23H21.49V121.44H26v2a4.5,4.5,0,0,1,4.06-2.24c2.81,0,4.91,1.74,4.91,5.27v8.8H30.32v-7.67c0-1.79-.72-2.68-2.07-2.68s-2.07.89-2.07,2.68Z"/><path class="cls-1" d="M44.81,131.78a4.73,4.73,0,0,0,1.51-.25v3.65a8.58,8.58,0,0,1-2.45.33c-3.12,0-5.41-1.16-5.41-5.19V125H36.67v-3.58h1.79v-4h4.69v4h3.17V125H43.15v5.08C43.15,131.26,43.67,131.78,44.81,131.78Z"/><path class="cls-1" d="M54.68,135.51a7.18,7.18,0,1,1,7.12-7.18c0,.39,0,.75,0,1.11H52a2.59,2.59,0,0,0,2.81,2.42A2.15,2.15,0,0,0,57,130.68h4.5C60.61,133.85,58.21,135.51,54.68,135.51ZM52,127.09h5.38a2.72,2.72,0,0,0-5.38,0Z"/><path class="cls-1" d="M68.56,135.23H63.87V121.44h4.42V124a4.45,4.45,0,0,1,4.22-2.87,2.43,2.43,0,0,1,.69.06v4.58a4.35,4.35,0,0,0-1.44-.23c-2,0-3.2,1-3.2,2.76Z"/><path class="cls-1" d="M79.68,133.63v8.5H75V121.44h4.55v1.76a5.1,5.1,0,0,1,4.14-2c3.7,0,6.21,2.81,6.21,7.17s-2.51,7.18-6.21,7.18A5.08,5.08,0,0,1,79.68,133.63Zm5.66-5.3a2.84,2.84,0,1,0-2.82,3.09A2.82,2.82,0,0,0,85.34,128.33Z"/><path class="cls-1" d="M96.65,135.23H92V121.44h4.41V124a4.47,4.47,0,0,1,4.22-2.87,2.36,2.36,0,0,1,.69.06v4.58a4.24,4.24,0,0,0-1.43-.23c-2,0-3.2,1-3.2,2.76Z"/><path class="cls-1" d="M102.75,116.83a2.69,2.69,0,0,1,5.38,0,2.69,2.69,0,0,1-5.38,0Zm.33,18.4V121.44h4.69v13.79Z"/><path class="cls-1" d="M116.32,135.51c-3.67,0-6.48-1.77-6.48-4.83h4.27c0,1.21.94,1.82,2.15,1.82s1.72-.41,1.72-1.19c0-2.45-7.9-.08-7.9-5.82,0-2.73,2.54-4.33,5.83-4.33,3.56,0,6.2,2,6.2,4.66h-4.27A1.68,1.68,0,0,0,116,124.2c-1,0-1.6.38-1.6,1.07,0,2.21,8,0,8,5.77C122.36,133.88,119.8,135.51,116.32,135.51Z"/><path class="cls-1" d="M130.86,135.51a7.18,7.18,0,1,1,7.12-7.18c0,.39,0,.75-.06,1.11h-9.76a2.58,2.58,0,0,0,2.81,2.42,2.15,2.15,0,0,0,2.21-1.18h4.49C136.79,133.85,134.39,135.51,130.86,135.51Zm-2.68-8.42h5.38a2.52,2.52,0,0,0-2.7-2.29A2.55,2.55,0,0,0,128.18,127.09Z"/><path class="cls-1" d="M8.14,159.62a4.75,4.75,0,0,0,1.52-.25V163a8.71,8.71,0,0,1-2.46.33c-3.12,0-5.41-1.16-5.41-5.19v-5.3H0v-3.58H1.79v-4H6.48v4H9.66v3.58H6.48v5.08C6.48,159.1,7,159.62,8.14,159.62Z"/><path class="cls-1" d="M18,163.35A7.18,7.18,0,0,1,18,149a6.85,6.85,0,0,1,7.11,7.17c0,.39,0,.75-.05,1.11H15.31a2.59,2.59,0,0,0,2.82,2.42,2.13,2.13,0,0,0,2.2-1.18h4.5C24,161.69,21.55,163.35,18,163.35Zm-2.68-8.42h5.38a2.53,2.53,0,0,0-2.7-2.29A2.54,2.54,0,0,0,15.34,154.93Z"/><path class="cls-1" d="M36.14,154.71a2.31,2.31,0,0,0-2.4-1.63c-1.6,0-2.7,1.25-2.7,3.09s1.05,3.07,2.7,3.07a2.39,2.39,0,0,0,2.49-1.91h4.66c-.36,3.62-3.15,6-7.17,6a7.18,7.18,0,1,1,0-14.35c3.91,0,6.62,2.29,7.11,5.71Z"/><path class="cls-1" d="M47.68,163.07H43V142.38h4.69V151a4.47,4.47,0,0,1,3.91-2c2.82,0,4.91,1.74,4.91,5.27v8.8H51.81V155.4c0-1.79-.71-2.67-2.06-2.67s-2.07.88-2.07,2.67Z"/><path class="cls-1" d="M63.82,163.07H59.13V149.28h4.55v2A4.49,4.49,0,0,1,67.73,149c2.82,0,4.91,1.74,4.91,5.27v8.8H68V155.4c0-1.79-.71-2.67-2.06-2.67s-2.07.88-2.07,2.67Z"/><path class="cls-1" d="M74.58,156.17a7.31,7.31,0,1,1,7.31,7.18A7,7,0,0,1,74.58,156.17Zm10.15,0a2.84,2.84,0,1,0-2.84,3.09A2.85,2.85,0,0,0,84.73,156.17Z"/><path class="cls-1" d="M91.27,163.07V142.38H96v20.69Z"/><path class="cls-1" d="M98,156.17a7.31,7.31,0,1,1,7.31,7.18A7,7,0,0,1,98,156.17Zm10.15,0a2.84,2.84,0,1,0-2.84,3.09A2.84,2.84,0,0,0,108.18,156.17Z"/><path class="cls-1" d="M114.31,164.17h4.44a2.67,2.67,0,0,0,2.73,2.49c1.79,0,2.76-1.24,2.76-3.18v-2a5.08,5.08,0,0,1-4,1.88c-3.67,0-6.21-2.82-6.21-7.18s2.54-7.17,6.21-7.17a5.1,5.1,0,0,1,4.14,2v-1.76h4.55v14.07c0,4.19-3.17,6.89-7.31,6.89S114.8,167.87,114.31,164.17Zm9.93-8a2.84,2.84,0,1,0-2.82,3.09A2.84,2.84,0,0,0,124.24,156.17Z"/><path class="cls-1" d="M130.5,169.91v-3.47a8.58,8.58,0,0,0,2,.27,3.8,3.8,0,0,0,2.6-.91l-4.75-16.52h4.55l2.27,11.06,2.31-11.06h4.56l-3.76,13.54c-1.13,4.72-3.11,7.42-7.28,7.42A9.27,9.27,0,0,1,130.5,169.91Z"/><path class="cls-1" d="M21.37,0l2.7,95.73L121.8,92.3V6.78ZM43.58,56.63h0a8.42,8.42,0,1,1,0-16h0c.39.17.89.39,1.49.63,3.16,1.31,8.88,3.39,13.28,3.39,4.58,0,10.61-2.26,13.68-3.56h0l.73-.32.07,0a8.42,8.42,0,1,1,0,15.81l-.07,0-.73-.31,0,0C69,54.87,62.93,52.6,58.35,52.6,54,52.6,48.23,54.68,45.07,56,44.47,56.23,44,56.45,43.58,56.63Zm49.9,20.13a8.41,8.41,0,0,1-2.89-.51l-.08,0-.72-.31-.05,0c-3.06-1.29-9.1-3.56-13.68-3.56-4.39,0-10.11,2.08-13.28,3.39l-1.48.64h0a8.74,8.74,0,0,1-2.57.4,8.42,8.42,0,1,1,2.57-16.44h0c.38.17.89.39,1.48.63,3.17,1.31,8.89,3.39,13.28,3.39,4.58,0,10.62-2.26,13.68-3.56h.05l.72-.32.08,0a8.42,8.42,0,1,1,2.89,16.33Zm0-39.45a8.41,8.41,0,0,1-2.89-.51l-.08,0-.72-.31-.05,0c-3.06-1.29-9.1-3.56-13.68-3.56C71.67,32.88,66,35,62.78,36.27c-.59.24-1.1.46-1.48.64h0a8.42,8.42,0,1,1,0-16h0c.38.17.89.39,1.48.63,3.17,1.31,8.89,3.39,13.28,3.39,4.58,0,10.62-2.27,13.68-3.56l.05,0,.72-.31.08,0a8.42,8.42,0,1,1,2.89,16.32Z"/></g></g></svg>